# xmcd
#
# Track frame offsets:
#	150
#	17654
#	32878
#	48006
#	59918
#	83050
#	99834
#	113882
#	132418
#	153774
#	173942
#	195142
#	214062
#	229898
#	248566
#
# Disc length: 3494
#
# Revision: 1
# Processed by: cddbd v1.5.1PL0 Copyright (c) Steve Scherf et al.
# Submitted via: EasyCDDAExtractor 4.5.0.2
# Normalized: r0:TDELIM( - )
#
DISCID=bb0da40f
DTITLE=Compilation
DYEAR=2002
DGENRE=Chanson
TTITLE0=Kylie Minogue - Can't Get You Out Of my Heat
TTITLE1=Kylie Minogue - In Your Eye
TTITLE2=Yannick Noah - La voix des sages
TTITLE3=Yannick Noah - Les Lionnes
TTITLE4=Florant Pagny and Natasha St Pier - Là-bas
TTITLE5=Gérard De Palmas - Sur la route
TTITLE6=Gérard De Palmas - Marcher dans le sable
TTITLE7=Marc lavoine - J'ai tout oublié
TTITLE8=Mylène Farmer and Seal - Les Mots
TTITLE9=Hélène Ségara - Il y a trop de gens qui t'aiment
TTITLE10=Les Enfoirés - Qui saura
TTITLE11=Tina Arena - Tu es toujours là
TTITLE12=Florent Pagny and Cécilia Cara - L'air du temps
TTITLE13=Les Enfoirés - Allez plus haut
TTITLE14=Etienne daho and Dani - Comme un boomerang
EXTD=
EXTT0=
EXTT1=
EXTT2=
EXTT3=
EXTT4=
EXTT5=
EXTT6=
EXTT7=
EXTT8=
EXTT9=
EXTT10=
EXTT11=
EXTT12=
EXTT13=
EXTT14=
PLAYORDER=
